<svg xmlns="http://www.w3.org/2000/svg" viewBox="0 0 512 512" role="img" aria-label="IRON COACH">
  <defs>
    <linearGradient id="steel" x1="0" y1="0" x2="1" y2="1">
      <stop offset="0%" stop-color="#ffffff"/>
      <stop offset="55%" stop-color="#d8d8d8"/>
      <stop offset="100%" stop-color="#9a9a9a"/>
    </linearGradient>
  </defs>
  <rect width="512" height="512" rx="108" fill="#070707"/>
  <rect x="28" y="28" width="456" height="456" rx="92" fill="none" stroke="#e10600" stroke-width="10" opacity="0.9"/>
  <rect x="56" y="56" width="400" height="400" rx="78" fill="#0c0c0c"/>
  <!-- I -->
  <rect x="118" y="128" width="64" height="256" rx="10" fill="url(#steel)"/>
  <rect x="118" y="128" width="18" height="256" rx="6" fill="#e10600"/>
  <!-- C -->
  <path fill="url(#steel)" d="M360 160c-62 0-112 46-112 104s50 104 112 104c34 0 64-14 84-36l-34-34c-12 12-28 20-50 20-34 0-58-26-58-54s24-54 58-54c22 0 38 8 50 20l34-34c-20-22-50-36-84-36z"/>
</svg>
